<svg width="616" height="712" viewBox="0 0 616 712" fill="none" xmlns="http://www.w3.org/2000/svg">
<circle cx="308" cy="348.696" r="308" fill="url(#paint0_linear)"/>
<path d="M156.202 469C191.202 469 218.368 461.833 237.702 447.5C257.368 433.167 267.202 414.167 267.202 390.5C267.202 373.5 262.868 358.5 254.202 345.5C245.868 332.5 235.368 321.833 222.702 313.5C210.035 304.833 197.035 296.333 183.702 288C170.702 279.667 158.535 269.167 147.202 256.5C135.868 243.833 128.368 229.5 124.702 213.5C94.3683 204.5 74.3683 185.667 64.7017 157C61.035 146 59.2017 134.5 59.2017 122.5C59.2017 110.5 61.035 98 64.7017 85C72.3683 59.3333 84.8683 40 102.202 27L107.702 35C92.035 46.3333 80.7017 64 73.7017 88C70.3683 100 68.7017 111.5 68.7017 122.5C68.7017 133.5 70.3683 144 73.7017 154C81.7017 178.333 98.2017 194.667 123.202 203C122.535 199.333 122.202 193.667 122.202 186C122.202 142.333 138.035 107 169.702 80C201.368 53 240.035 39.5 285.702 39.5C315.702 39.5 339.702 47.6667 357.702 64C373.035 78.3333 380.702 96 380.702 117C380.702 137.667 373.702 155.667 359.702 171C345.702 186 326.868 193.5 303.202 193.5C290.202 193.5 279.535 191 271.202 186C254.202 199 234.035 208.333 210.702 214C217.368 220.333 232.868 232 257.202 249C281.868 266 300.202 282.333 312.202 298C324.535 313.333 330.702 331.333 330.702 352C330.702 390 315.868 420.833 286.202 444.5C256.868 468.167 219.535 480 174.202 480C129.202 480 95.2017 470 72.2017 450C52.2017 433 42.2017 412.167 42.2017 387.5C42.2017 363.167 50.035 342.333 65.7017 325C81.7017 307.333 101.535 298.5 125.202 298.5C148.868 298.5 166.368 303.833 177.702 314.5C189.035 324.833 194.702 337.5 194.702 352.5C194.702 367.5 190.035 380.833 180.702 392.5C171.702 404.167 159.868 410 145.202 410C130.535 410 118.868 405.333 110.202 396C102.202 388 97.7017 378 96.7017 366C96.3683 362.667 96.3683 360.667 96.7017 360L106.202 360.5C105.868 372.167 109.535 381.833 117.202 389.5C123.535 396.5 132.702 400 144.702 400C157.035 400 166.868 395.167 174.202 385.5C181.535 376.167 185.202 365.333 185.202 353C185.202 340.333 180.868 330.167 172.202 322.5C162.535 312.833 147.035 308 125.702 308C104.368 308 86.7017 315.833 72.7017 331.5C58.7017 346.833 51.7017 365.333 51.7017 387C51.7017 409 60.7017 427.667 78.7017 443C89.3683 452.333 100.202 459 111.202 463C122.535 467 137.535 469 156.202 469ZM241.202 125C241.202 110.333 244.868 98.1666 252.202 88.5C259.868 78.8333 270.202 74 283.202 74C305.535 74 316.702 86.3333 316.702 111C316.702 135.333 304.535 158.333 280.202 180C287.535 183.333 295.202 185 303.202 185C323.868 185 340.368 178.333 352.702 165C365.035 151.333 371.202 135.5 371.202 117.5C371.202 99.1667 364.535 83.6667 351.202 71C334.868 56.3333 313.368 49 286.702 49C260.035 49 237.368 55.5 218.702 68.5C189.702 89.1667 175.202 115.833 175.202 148.5C175.202 175.5 184.202 195.167 202.202 207.5C224.535 202.5 245.202 193.5 264.202 180.5C248.868 166.833 241.202 148.333 241.202 125ZM282.702 83C272.702 83 264.868 86.8333 259.202 94.5C253.868 102.167 251.202 112.333 251.202 125C251.202 146.667 258.035 163.167 271.702 174.5C281.702 167.5 290.035 158 296.702 146C303.368 134 306.702 122.167 306.702 110.5C306.702 92.1667 298.702 83 282.702 83Z" fill="white"/>
<path d="M326.367 673.199C361.367 673.199 388.534 666.032 407.867 651.699C427.534 637.366 437.367 618.366 437.367 594.699C437.367 577.699 433.034 562.699 424.367 549.699C416.034 536.699 405.534 526.032 392.867 517.699C380.201 509.032 367.201 500.532 353.867 492.199C340.867 483.866 328.701 473.366 317.367 460.699C306.034 448.032 298.534 433.699 294.867 417.699C264.534 408.699 244.534 389.866 234.867 361.199C231.201 350.199 229.367 338.699 229.367 326.699C229.367 314.699 231.201 302.199 234.867 289.199C242.534 263.532 255.034 244.199 272.367 231.199L277.867 239.199C262.201 250.532 250.867 268.199 243.867 292.199C240.534 304.199 238.867 315.699 238.867 326.699C238.867 337.699 240.534 348.199 243.867 358.199C251.867 382.532 268.367 398.866 293.367 407.199C292.701 403.532 292.367 397.866 292.367 390.199C292.367 346.532 308.201 311.199 339.867 284.199C371.534 257.199 410.201 243.699 455.867 243.699C485.867 243.699 509.867 251.866 527.867 268.199C543.201 282.532 550.867 300.199 550.867 321.199C550.867 341.866 543.867 359.866 529.867 375.199C515.867 390.199 497.034 397.699 473.367 397.699C460.367 397.699 449.701 395.199 441.367 390.199C424.367 403.199 404.201 412.532 380.867 418.199C387.534 424.532 403.034 436.199 427.367 453.199C452.034 470.199 470.367 486.532 482.367 502.199C494.701 517.532 500.867 535.532 500.867 556.199C500.867 594.199 486.034 625.032 456.367 648.699C427.034 672.366 389.701 684.199 344.367 684.199C299.367 684.199 265.367 674.199 242.367 654.199C222.367 637.199 212.367 616.366 212.367 591.699C212.367 567.366 220.201 546.532 235.867 529.199C251.867 511.532 271.701 502.699 295.367 502.699C319.034 502.699 336.534 508.032 347.867 518.699C359.201 529.032 364.867 541.699 364.867 556.699C364.867 571.699 360.201 585.032 350.867 596.699C341.867 608.366 330.034 614.199 315.367 614.199C300.701 614.199 289.034 609.532 280.367 600.199C272.367 592.199 267.867 582.199 266.867 570.199C266.534 566.866 266.534 564.866 266.867 564.199L276.367 564.699C276.034 576.366 279.701 586.032 287.367 593.699C293.701 600.699 302.867 604.199 314.867 604.199C327.201 604.199 337.034 599.366 344.367 589.699C351.701 580.366 355.367 569.532 355.367 557.199C355.367 544.532 351.034 534.366 342.367 526.699C332.701 517.032 317.201 512.199 295.867 512.199C274.534 512.199 256.867 520.032 242.867 535.699C228.867 551.032 221.867 569.532 221.867 591.199C221.867 613.199 230.867 631.866 248.867 647.199C259.534 656.532 270.367 663.199 281.367 667.199C292.701 671.199 307.701 673.199 326.367 673.199ZM411.367 329.199C411.367 314.532 415.034 302.366 422.367 292.699C430.034 283.032 440.367 278.199 453.367 278.199C475.701 278.199 486.867 290.532 486.867 315.199C486.867 339.532 474.701 362.532 450.367 384.199C457.701 387.532 465.367 389.199 473.367 389.199C494.034 389.199 510.534 382.532 522.867 369.199C535.201 355.532 541.367 339.699 541.367 321.699C541.367 303.366 534.701 287.866 521.367 275.199C505.034 260.532 483.534 253.199 456.867 253.199C430.201 253.199 407.534 259.699 388.867 272.699C359.867 293.366 345.367 320.032 345.367 352.699C345.367 379.699 354.367 399.366 372.367 411.699C394.701 406.699 415.367 397.699 434.367 384.699C419.034 371.032 411.367 352.532 411.367 329.199ZM452.867 287.199C442.867 287.199 435.034 291.032 429.367 298.699C424.034 306.366 421.367 316.532 421.367 329.199C421.367 350.866 428.201 367.366 441.867 378.699C451.867 371.699 460.201 362.199 466.867 350.199C473.534 338.199 476.867 326.366 476.867 314.699C476.867 296.366 468.867 287.199 452.867 287.199Z" fill="white"/>
<defs>
<linearGradient id="paint0_linear" x1="0" y1="348.696" x2="616" y2="348.696" gradientUnits="userSpaceOnUse">
<stop stop-color="#02AAB0"/>
<stop offset="1" stop-color="#00CDAC"/>
</linearGradient>
</defs>
</svg>
