<svg width="362" height="452" viewBox="0 0 362 452" fill="none" xmlns="http://www.w3.org/2000/svg">
<circle cx="181" cy="239" r="181" fill="url(#paint0_linear)"/>
<path d="M89.992 303.872C110.152 303.872 125.8 299.744 136.936 291.488C148.264 283.232 153.928 272.288 153.928 258.656C153.928 248.864 151.432 240.224 146.44 232.736C141.64 225.248 135.592 219.104 128.296 214.304C121 209.312 113.512 204.416 105.832 199.616C98.344 194.816 91.336 188.768 84.808 181.472C78.28 174.176 73.96 165.92 71.848 156.704C54.376 151.52 42.856 140.672 37.288 124.16C35.176 117.824 34.12 111.2 34.12 104.288C34.12 97.376 35.176 90.176 37.288 82.688C41.704 67.904 48.904 56.768 58.888 49.28L62.056 53.888C53.032 60.416 46.504 70.592 42.472 84.416C40.552 91.328 39.592 97.952 39.592 104.288C39.592 110.624 40.552 116.672 42.472 122.432C47.08 136.448 56.584 145.856 70.984 150.656C70.6 148.544 70.408 145.28 70.408 140.864C70.408 115.712 79.528 95.36 97.768 79.808C116.008 64.256 138.28 56.48 164.584 56.48C181.864 56.48 195.688 61.184 206.056 70.592C214.888 78.848 219.304 89.024 219.304 101.12C219.304 113.024 215.272 123.392 207.208 132.224C199.144 140.864 188.296 145.184 174.664 145.184C167.176 145.184 161.032 143.744 156.232 140.864C146.44 148.352 134.824 153.728 121.384 156.992C125.224 160.64 134.152 167.36 148.168 177.152C162.376 186.944 172.936 196.352 179.848 205.376C186.952 214.208 190.504 224.576 190.504 236.48C190.504 258.368 181.96 276.128 164.872 289.76C147.976 303.392 126.472 310.208 100.36 310.208C74.44 310.208 54.856 304.448 41.608 292.928C30.088 283.136 24.328 271.136 24.328 256.928C24.328 242.912 28.84 230.912 37.864 220.928C47.08 210.752 58.504 205.664 72.136 205.664C85.768 205.664 95.848 208.736 102.376 214.88C108.904 220.832 112.168 228.128 112.168 236.768C112.168 245.408 109.48 253.088 104.104 259.808C98.92 266.528 92.104 269.888 83.656 269.888C75.208 269.888 68.488 267.2 63.496 261.824C58.888 257.216 56.296 251.456 55.72 244.544C55.528 242.624 55.528 241.472 55.72 241.088L61.192 241.376C61 248.096 63.112 253.664 67.528 258.08C71.176 262.112 76.456 264.128 83.368 264.128C90.472 264.128 96.136 261.344 100.36 255.776C104.584 250.4 106.696 244.16 106.696 237.056C106.696 229.76 104.2 223.904 99.208 219.488C93.64 213.92 84.712 211.136 72.424 211.136C60.136 211.136 49.96 215.648 41.896 224.672C33.832 233.504 29.8 244.16 29.8 256.64C29.8 269.312 34.984 280.064 45.352 288.896C51.496 294.272 57.736 298.112 64.072 300.416C70.6 302.72 79.24 303.872 89.992 303.872ZM138.952 105.728C138.952 97.28 141.064 90.272 145.288 84.704C149.704 79.136 155.656 76.352 163.144 76.352C176.008 76.352 182.44 83.456 182.44 97.664C182.44 111.68 175.432 124.928 161.416 137.408C165.64 139.328 170.056 140.288 174.664 140.288C186.568 140.288 196.072 136.448 203.176 128.768C210.28 120.896 213.832 111.776 213.832 101.408C213.832 90.848 209.992 81.92 202.312 74.624C192.904 66.176 180.52 61.952 165.16 61.952C149.8 61.952 136.744 65.696 125.992 73.184C109.288 85.088 100.936 100.448 100.936 119.264C100.936 134.816 106.12 146.144 116.488 153.248C129.352 150.368 141.256 145.184 152.2 137.696C143.368 129.824 138.952 119.168 138.952 105.728ZM162.856 81.536C157.096 81.536 152.584 83.744 149.32 88.16C146.248 92.576 144.712 98.432 144.712 105.728C144.712 118.208 148.648 127.712 156.52 134.24C162.28 130.208 167.08 124.736 170.92 117.824C174.76 110.912 176.68 104.096 176.68 97.376C176.68 86.816 172.072 81.536 162.856 81.536Z" fill="white"/>
<path d="M189.992 423.872C210.152 423.872 225.8 419.744 236.936 411.488C248.264 403.232 253.928 392.288 253.928 378.656C253.928 368.864 251.432 360.224 246.44 352.736C241.64 345.248 235.592 339.104 228.296 334.304C221 329.312 213.512 324.416 205.832 319.616C198.344 314.816 191.336 308.768 184.808 301.472C178.28 294.176 173.96 285.92 171.848 276.704C154.376 271.52 142.856 260.672 137.288 244.16C135.176 237.824 134.12 231.2 134.12 224.288C134.12 217.376 135.176 210.176 137.288 202.688C141.704 187.904 148.904 176.768 158.888 169.28L162.056 173.888C153.032 180.416 146.504 190.592 142.472 204.416C140.552 211.328 139.592 217.952 139.592 224.288C139.592 230.624 140.552 236.672 142.472 242.432C147.08 256.448 156.584 265.856 170.984 270.656C170.6 268.544 170.408 265.28 170.408 260.864C170.408 235.712 179.528 215.36 197.768 199.808C216.008 184.256 238.28 176.48 264.584 176.48C281.864 176.48 295.688 181.184 306.056 190.592C314.888 198.848 319.304 209.024 319.304 221.12C319.304 233.024 315.272 243.392 307.208 252.224C299.144 260.864 288.296 265.184 274.664 265.184C267.176 265.184 261.032 263.744 256.232 260.864C246.44 268.352 234.824 273.728 221.384 276.992C225.224 280.64 234.152 287.36 248.168 297.152C262.376 306.944 272.936 316.352 279.848 325.376C286.952 334.208 290.504 344.576 290.504 356.48C290.504 378.368 281.96 396.128 264.872 409.76C247.976 423.392 226.472 430.208 200.36 430.208C174.44 430.208 154.856 424.448 141.608 412.928C130.088 403.136 124.328 391.136 124.328 376.928C124.328 362.912 128.84 350.912 137.864 340.928C147.08 330.752 158.504 325.664 172.136 325.664C185.768 325.664 195.848 328.736 202.376 334.88C208.904 340.832 212.168 348.128 212.168 356.768C212.168 365.408 209.48 373.088 204.104 379.808C198.92 386.528 192.104 389.888 183.656 389.888C175.208 389.888 168.488 387.2 163.496 381.824C158.888 377.216 156.296 371.456 155.72 364.544C155.528 362.624 155.528 361.472 155.72 361.088L161.192 361.376C161 368.096 163.112 373.664 167.528 378.08C171.176 382.112 176.456 384.128 183.368 384.128C190.472 384.128 196.136 381.344 200.36 375.776C204.584 370.4 206.696 364.16 206.696 357.056C206.696 349.76 204.2 343.904 199.208 339.488C193.64 333.92 184.712 331.136 172.424 331.136C160.136 331.136 149.96 335.648 141.896 344.672C133.832 353.504 129.8 364.16 129.8 376.64C129.8 389.312 134.984 400.064 145.352 408.896C151.496 414.272 157.736 418.112 164.072 420.416C170.6 422.72 179.24 423.872 189.992 423.872ZM238.952 225.728C238.952 217.28 241.064 210.272 245.288 204.704C249.704 199.136 255.656 196.352 263.144 196.352C276.008 196.352 282.44 203.456 282.44 217.664C282.44 231.68 275.432 244.928 261.416 257.408C265.64 259.328 270.056 260.288 274.664 260.288C286.568 260.288 296.072 256.448 303.176 248.768C310.28 240.896 313.832 231.776 313.832 221.408C313.832 210.848 309.992 201.92 302.312 194.624C292.904 186.176 280.52 181.952 265.16 181.952C249.8 181.952 236.744 185.696 225.992 193.184C209.288 205.088 200.936 220.448 200.936 239.264C200.936 254.816 206.12 266.144 216.488 273.248C229.352 270.368 241.256 265.184 252.2 257.696C243.368 249.824 238.952 239.168 238.952 225.728ZM262.856 201.536C257.096 201.536 252.584 203.744 249.32 208.16C246.248 212.576 244.712 218.432 244.712 225.728C244.712 238.208 248.648 247.712 256.52 254.24C262.28 250.208 267.08 244.736 270.92 237.824C274.76 230.912 276.68 224.096 276.68 217.376C276.68 206.816 272.072 201.536 262.856 201.536Z" fill="white"/>
<defs>
<linearGradient id="paint0_linear" x1="0" y1="239" x2="362" y2="239" gradientUnits="userSpaceOnUse">
<stop stop-color="#00F5A0"/>
<stop offset="0.0666667" stop-color="#00F5A1"/>
<stop offset="0.133333" stop-color="#00F4A3"/>
<stop offset="0.2" stop-color="#00F3A7"/>
<stop offset="0.266667" stop-color="#00F1AD"/>
<stop offset="0.333333" stop-color="#00EFB4"/>
<stop offset="0.4" stop-color="#00ECBC"/>
<stop offset="0.466667" stop-color="#00E9C6"/>
<stop offset="0.533333" stop-color="#00E5CF"/>
<stop offset="0.6" stop-color="#00E2D9"/>
<stop offset="0.666667" stop-color="#00DFE1"/>
<stop offset="0.733333" stop-color="#00DDE8"/>
<stop offset="0.8" stop-color="#00DBEE"/>
<stop offset="0.866667" stop-color="#00DAF2"/>
<stop offset="0.933333" stop-color="#00D9F4"/>
<stop offset="1" stop-color="#00D9F5"/>
</linearGradient>
</defs>
</svg>
